<svg width="656" height="176" viewBox="0 0 656 176" fill="none" xmlns="http://www.w3.org/2000/svg">
<g clip-path="url(#clip0)">
<rect width="656" height="176" fill="white"/>
<path fill-rule="evenodd" clip-rule="evenodd" d="M84.5 169C131.168 169 169 131.168 169 84.5C169 37.8319 131.168 0 84.5 0C37.8319 0 0 37.8319 0 84.5C0 98.9122 3.60809 112.482 9.97026 124.354L14.7155 167.358C15.1819 171.584 19.4027 174.323 23.4525 173.028L53.9007 163.289C63.3889 166.977 73.7082 169 84.5 169Z" fill="#0091EA"/>
<path d="M130.229 127.552C130.229 128.531 129.882 129.484 129.201 130.186C125.025 134.495 119.188 138.006 111.69 140.722C103.554 143.668 94.6366 145.141 84.9366 145.141C70.0216 145.141 58.1052 140.454 49.1875 131.08C40.2697 121.705 35.498 108.661 34.8722 91.9477L34.7939 81.8232C34.7939 70.306 36.7757 60.2619 40.7391 51.6909C44.7025 43.0663 50.3608 36.4506 57.7141 31.8437C65.1194 27.1833 73.6721 24.853 83.3721 24.853C97.557 24.853 108.561 28.2011 116.383 34.8971C123.356 40.7787 127.753 49.2432 129.574 60.2905C129.962 62.6446 128.083 64.708 125.697 64.708H107.209C105.201 64.708 103.527 63.225 103.076 61.2684C101.981 56.51 100.158 52.9961 97.6091 50.7266C94.4801 47.9411 90.0473 46.5483 84.3108 46.5483C77.4269 46.5483 72.1076 49.5481 68.3527 55.5478C64.5979 61.5475 62.6944 70.1185 62.6423 81.2607V88.3318C62.6423 100.01 64.5718 108.795 68.431 114.688C72.3423 120.527 78.4699 123.446 86.814 123.446C93.0935 123.446 97.963 122.184 101.423 119.66C102.325 119.001 102.772 117.91 102.772 116.793V104.421C102.772 102.192 100.965 100.385 98.7353 100.385H87.7217C85.4923 100.385 83.685 98.5774 83.685 96.348V85.0564C83.685 82.827 85.4923 81.0197 87.7217 81.0197H126.192C128.422 81.0197 130.229 82.827 130.229 85.0564V127.552Z" fill="white"/>
<path d="M290.519 46.9209C292.409 46.9451 292.53 46.9451 292.796 46.9451C292.893 46.9451 293.184 46.9693 293.523 46.9935V45.2254C292.602 45.3465 292.094 45.3708 290.544 45.3708H279.79C279.499 45.395 279.499 45.395 279.281 45.395C279.572 44.9348 279.765 44.5473 280.541 42.7549C280.904 41.9072 280.904 41.8588 281.146 41.4228L279.305 40.8415C279.16 41.7135 278.845 42.6096 278.07 44.2324C276.762 46.9935 274.921 49.3429 272.887 50.9173C273.638 51.3048 273.904 51.5228 274.316 52.0556C275.914 50.6266 277.222 49.0281 278.53 46.9209H285.215C285.07 49.5609 284.682 51.5955 284.077 52.9518C282.963 55.6887 280.08 58.1835 276.641 59.4187C277.222 59.8789 277.513 60.2664 277.828 60.9688C284.319 57.8686 286.668 54.2597 287.007 46.9209H290.519ZM288.969 40.5993C289.672 41.3501 290.834 43.1667 291.44 44.4504L292.651 43.7238C291.924 42.2947 291.246 41.2775 290.156 39.9696L288.969 40.5993ZM291.852 39.5336C292.796 40.6235 293.813 42.1736 294.322 43.3362L295.557 42.6338C294.734 41.1079 294.128 40.2118 293.038 38.8554L291.852 39.5336ZM303.178 40.7446C302.984 42.1252 302.452 44.0629 301.265 47.7202C300.078 51.3532 299.109 53.9206 297.608 57.3115C297.05 57.36 295.718 57.4326 295.549 57.4326C295.428 57.4326 295.428 57.4326 294.871 57.4084L295.113 59.4187C295.573 59.3218 296.251 59.2249 297.172 59.1523C303.178 58.5952 307.998 57.9412 312.067 57.142C312.624 58.2561 312.963 59.0312 313.496 60.4118L315.192 59.4914C313.52 55.5919 311.098 51.2079 309.161 48.5437L307.659 49.3672C308.846 51.0142 310.105 53.0971 311.389 55.6403C308.531 56.1974 302.839 56.9482 299.618 57.1662C301.241 53.4604 302.888 48.8101 304.656 42.9971C304.898 42.1979 305.067 41.7135 305.31 41.2533L303.178 40.7446ZM336.966 42.8034C336.554 42.9729 336.385 42.9971 335.416 42.9971H323.499C322.167 42.9971 321.683 42.9729 320.762 42.8276V44.7895C321.562 44.6684 322.24 44.6441 323.475 44.6441H335.803C334.423 50.0696 332.146 53.5331 328.174 56.1731C326.309 57.4326 324.88 58.0866 322.7 58.7405C323.33 59.3703 323.524 59.6367 323.887 60.436C327.157 59.1765 329.24 57.917 331.492 55.8825C334.447 53.194 336.288 50.0211 337.571 45.3708C337.911 44.1355 337.911 44.1355 338.08 43.8691L336.966 42.8034ZM346.969 41.3986C347.017 41.9314 347.042 42.2221 347.042 42.7065V43.6027L346.993 57.4811C346.993 58.3772 346.945 58.6436 346.824 59.0554L347.793 60.2664C348.132 60.1211 348.253 60.0969 349.197 59.9031C355.664 58.6436 359.225 56.3911 362.543 51.4501C361.962 50.9657 361.816 50.772 361.211 49.9242C359.806 52.4916 358.183 54.2355 355.761 55.7372C353.823 56.9482 351.619 57.699 348.834 58.1592L348.907 43.5542C348.907 42.537 348.955 41.9072 349.028 41.3986H346.969Z" fill="#424242"/>
<path fill-rule="evenodd" clip-rule="evenodd" d="M351.755 79.7206H284.379C283.103 78.4501 281.344 77.6648 279.401 77.6648C275.506 77.6648 272.348 80.8227 272.348 84.7182C272.348 86.4391 272.964 88.016 273.988 89.2403L256.571 141.148C255.73 143.653 256.832 146.397 259.17 147.625L273.54 155.174C276.474 156.715 280.091 155.264 281.145 152.121L287.103 134.365C287.839 132.172 289.893 130.695 292.206 130.695H307.552C309.799 130.695 311.621 132.517 311.621 134.764C311.621 137.012 313.443 138.834 315.691 138.834H320.693C322.941 138.834 324.763 137.012 324.763 134.764C324.763 132.517 326.585 130.695 328.832 130.695H342.988C345.301 130.695 347.355 132.172 348.091 134.365L354.049 152.121C355.103 155.264 358.72 156.715 361.654 155.174L376.024 147.625C378.362 146.397 379.464 143.653 378.623 141.148L361.449 89.9631C362.884 88.672 363.786 86.8005 363.786 84.7182C363.786 80.8227 360.628 77.6648 356.732 77.6648C354.79 77.6648 353.031 78.4501 351.755 79.7206ZM300.009 91.1907V100.587H309.405V109.983H300.009V117.5H290.613V109.983H281.217V100.587H290.613V91.1907H300.009ZM348.634 94.479C348.634 97.2034 346.426 99.412 343.701 99.412C340.977 99.412 338.768 97.2034 338.768 94.479C338.768 91.7546 340.977 89.546 343.701 89.546C346.426 89.546 348.634 91.7546 348.634 94.479ZM333.835 109.278C336.559 109.278 338.768 107.069 338.768 104.345C338.768 101.621 336.559 99.4119 333.835 99.4119C331.111 99.4119 328.902 101.621 328.902 104.345C328.902 107.069 331.111 109.278 333.835 109.278ZM348.634 114.211C348.634 116.935 346.426 119.144 343.701 119.144C340.977 119.144 338.768 116.935 338.768 114.211C338.768 111.486 340.977 109.278 343.701 109.278C346.426 109.278 348.634 111.486 348.634 114.211ZM353.567 109.278C356.291 109.278 358.5 107.069 358.5 104.345C358.5 101.621 356.291 99.4119 353.567 99.4119C350.843 99.4119 348.634 101.621 348.634 104.345C348.634 107.069 350.843 109.278 353.567 109.278Z" fill="#424242"/>
<path d="M230.909 149.299C229.747 149.299 228.889 149.182 228.518 148.081C227.691 145.633 224.401 143.914 222.291 145.405C217.274 148.949 211.595 150.721 205.256 150.721C197.669 150.721 191.433 148.588 186.549 144.321C181.713 140.007 179.294 134.555 179.294 127.966C179.294 119.955 182.329 113.744 188.399 109.336C194.516 104.88 203.098 102.652 214.147 102.652H222.913C225.143 102.652 226.95 100.844 226.95 98.6148V96.6073C226.95 92.009 225.575 88.3588 222.825 85.6567C220.074 82.9071 216.02 81.5324 210.662 81.5324C205.967 81.5324 202.031 82.7175 198.854 85.0878C196.992 86.4772 195.676 88.0376 194.905 89.769C193.998 91.8058 192.281 93.6919 190.052 93.6919H184.896C182.666 93.6919 180.811 91.8577 181.36 89.6969C181.976 87.2711 183.16 84.9051 184.913 82.599C187.664 78.9962 191.362 76.1518 196.009 74.066C200.704 71.9802 205.849 70.9372 211.444 70.9372C220.311 70.9372 227.258 73.1653 232.285 77.6214C237.311 82.0301 239.919 88.1217 240.109 95.8963V131.308C240.109 138.271 240.984 143.829 242.735 147.982C242.785 148.101 242.811 148.227 242.811 148.356C242.811 148.876 242.389 149.299 241.869 149.299H230.909ZM207.176 139.272C211.302 139.272 215.214 138.206 218.912 136.072C222.308 134.114 224.845 131.616 226.522 128.578C226.818 128.042 226.95 127.435 226.95 126.823V116.004C226.95 113.774 225.143 111.967 222.913 111.967H216.636C200.514 111.967 192.453 116.684 192.453 126.117C192.453 130.242 193.828 133.465 196.578 135.788C199.329 138.111 202.861 139.272 207.176 139.272Z" fill="#424242"/>
<path d="M420.418 150.721C409.986 150.721 401.498 147.308 394.954 140.481C388.41 133.607 385.139 124.434 385.139 112.962V110.545C385.139 102.912 386.585 96.1096 389.477 90.1365C392.417 84.116 396.495 79.4228 401.711 76.057C406.975 72.6438 412.665 70.9372 418.782 70.9372C428.787 70.9372 436.564 74.2319 442.112 80.8213C447.66 87.4107 450.434 96.8444 450.434 109.122V110.561C450.434 112.79 448.627 114.598 446.397 114.598H402.436C400.167 114.598 398.315 116.474 398.618 118.722C399.387 124.44 401.485 129.204 404.912 133.015C409.18 137.661 414.586 139.983 421.129 139.983C425.776 139.983 429.712 139.035 432.937 137.139C435.039 135.903 436.97 134.404 438.73 132.644C440.31 131.063 442.834 130.717 444.597 132.09L446.511 133.58C448.166 134.869 448.579 137.23 447.263 138.863C440.887 146.768 431.939 150.721 420.418 150.721ZM418.782 81.7457C413.471 81.7457 409.014 83.6893 405.41 87.5766C402.622 90.5475 400.657 94.4548 399.515 99.2986C398.959 101.658 400.861 103.789 403.285 103.789H436.28C436.83 103.789 437.275 103.344 437.275 102.794C436.896 96.1096 435.094 90.9424 431.87 87.2922C428.645 83.5945 424.283 81.7457 418.782 81.7457Z" fill="#424242"/>
<path d="M524.905 99.5392C524.905 101.769 523.098 103.576 520.868 103.576H485.483C483.253 103.576 481.446 105.383 481.446 107.613V145.262C481.446 147.491 479.639 149.299 477.409 149.299H471.826C469.597 149.299 467.789 147.491 467.789 145.262V49.8017C467.789 47.5722 469.597 45.7649 471.826 45.7649H527.91C530.139 45.7649 531.947 47.5722 531.947 49.8017V52.9632C531.947 55.1927 530.139 57 527.91 57H485.483C483.253 57 481.446 58.8073 481.446 61.0368V88.3752C481.446 90.6046 483.253 92.4119 485.483 92.4119H520.868C523.098 92.4119 524.905 94.2193 524.905 96.4487V99.5392Z" fill="#424242"/>
<path d="M581.594 79.3984C581.594 81.8928 579.348 83.7911 576.855 83.6976C576.288 83.6763 575.71 83.6656 575.121 83.6656C566.788 83.6656 561.04 87.0915 557.88 93.9433C557.656 94.4302 557.553 94.9636 557.553 95.4998V145.262C557.553 147.491 555.745 149.299 553.516 149.299H548.431C546.201 149.299 544.394 147.491 544.394 145.262V76.3962C544.394 74.1667 546.201 72.3594 548.431 72.3594H555.178C556.301 72.3594 557.219 73.2553 557.246 74.3777C557.295 76.4268 560.26 77.344 561.79 75.9808C565.566 72.6184 570.223 70.9372 575.762 70.9372C577.076 70.9372 578.229 71.0247 579.218 71.1997C580.724 71.4659 581.594 72.8987 581.594 74.4279V79.3984Z" fill="#424242"/>
<path d="M624.271 150.721C613.839 150.721 605.351 147.308 598.807 140.481C592.263 133.607 588.991 124.434 588.991 112.962V110.545C588.991 102.912 590.438 96.1096 593.33 90.1365C596.27 84.116 600.348 79.4228 605.564 76.057C610.828 72.6438 616.518 70.9372 622.635 70.9372C632.64 70.9372 640.417 74.2319 645.965 80.8213C651.513 87.4107 654.287 96.8444 654.287 109.122V110.561C654.287 112.79 652.479 114.598 650.25 114.598H606.289C604.02 114.598 602.168 116.474 602.471 118.722C603.24 124.44 605.338 129.204 608.765 133.015C613.033 137.661 618.438 139.983 624.982 139.983C629.629 139.983 633.565 139.035 636.789 137.139C638.892 135.903 640.823 134.404 642.583 132.644C644.163 131.063 646.686 130.717 648.45 132.09L650.364 133.58C652.019 134.869 652.432 137.23 651.115 138.863C644.74 146.768 635.792 150.721 624.271 150.721ZM622.635 81.7457C617.324 81.7457 612.867 83.6893 609.263 87.5766C606.475 90.5475 604.509 94.4548 603.368 99.2986C602.811 101.658 604.714 103.789 607.138 103.789H640.133C640.682 103.789 641.128 103.344 641.128 102.794C640.749 96.1096 638.947 90.9424 635.722 87.2922C632.498 83.5945 628.135 81.7457 622.635 81.7457Z" fill="#424242"/>
<line x1="147" y1="174.268" x2="650.25" y2="174.268" stroke="#0091EA" stroke-width="4.03676"/>
</g>
<defs>
<clipPath id="clip0">
<rect width="656" height="176" fill="white"/>
</clipPath>
</defs>
</svg>
