<svg width="113" height="116" viewBox="0 0 113 116" fill="none" xmlns="http://www.w3.org/2000/svg">
<g clip-path="url(#clip0)">
<rect width="113" height="115.79" fill="white"/>
<path fill-rule="evenodd" clip-rule="evenodd" d="M56.2459 112.492C87.3096 112.492 112.492 87.3096 112.492 56.2459C112.492 25.1821 87.3096 0 56.2459 0C25.1821 0 0 25.1821 0 56.2459C0 65.8387 2.40147 74.8706 6.63601 82.7732L9.79472 111.399C10.1051 114.212 12.9147 116.035 15.6103 115.173L35.8778 108.691C42.1935 111.145 49.0624 112.492 56.2459 112.492Z" fill="#0091EA"/>
<path d="M86.6849 84.9034C86.6849 85.5549 86.4536 86.1889 86.0001 86.6567C83.2207 89.5243 79.3355 91.8619 74.3444 93.6694C68.9292 95.6305 62.9933 96.6111 56.5367 96.6111C46.6088 96.6111 38.6769 93.4911 32.7409 87.2512C26.805 81.0112 23.6288 72.3287 23.2122 61.2038L23.1602 54.4646C23.1602 46.7984 24.4792 40.1127 27.1174 34.4076C29.7556 28.6668 33.522 24.2632 38.4165 21.1967C43.3458 18.0945 49.0387 16.5435 55.4953 16.5435C64.9372 16.5435 72.2617 18.772 77.4686 23.2291C82.1098 27.1441 85.0364 32.7783 86.2485 40.1318C86.5068 41.6987 85.2562 43.0722 83.6681 43.0722H71.362C70.0256 43.0722 68.9108 42.085 68.611 40.7827C67.8818 37.6153 66.6688 35.2764 64.9719 33.7658C62.8892 31.9116 59.9386 30.9845 56.1201 30.9845C51.538 30.9845 47.9973 32.9813 45.498 36.9749C42.9986 40.9685 41.7316 46.6736 41.6969 54.0902V58.7969C41.6969 66.5701 42.9813 72.4179 45.55 76.3401C48.1535 80.2267 52.2323 82.1701 57.7864 82.1701C61.9662 82.1701 65.2075 81.3299 67.5102 79.6497C68.1111 79.2113 68.4085 78.4852 68.4085 77.7414V69.5067C68.4085 68.0227 67.2055 66.8197 65.7215 66.8197H58.3906C56.9066 66.8197 55.7036 65.6167 55.7036 64.1327V56.6168C55.7036 55.1328 56.9066 53.9298 58.3906 53.9298H83.9979C85.4819 53.9298 86.6849 55.1328 86.6849 56.6168V84.9034Z" fill="white"/>
</g>
<defs>
<clipPath id="clip0">
<rect width="113" height="115.79" fill="white"/>
</clipPath>
</defs>
</svg>
